<svg width="1156" height="1049" viewBox="0 0 1156 1049" fill="none" xmlns="http://www.w3.org/2000/svg">
<path d="M121.472 1045.32C39.7097 947.45 34.0668 787.641 115.836 633.177C197.605 478.714 -37.779 279.312 190.165 83.5769C321.481 -29.1565 678.766 -69.9388 948.044 237.34C1175.75 497.185 1089.56 924.197 929.387 1045.32H121.472Z" fill="#BCE8EB"/>
<g style="mix-blend-mode:screen" opacity="0.25">
<path d="M77.6736 185.793C100.976 182.281 124.662 185.229 148.089 183.024C171.903 180.698 194.944 173.307 215.667 161.345C221.508 157.994 227.287 154.258 233.63 152.506C242.134 150.158 251.011 151.558 259.738 151.979C276.922 152.763 294.068 149.74 309.948 143.128C315.368 140.885 321.419 137.175 322.336 130.516C323.476 122.018 315.578 115.941 308.672 113.03C301.765 110.119 293.441 106.502 291.948 98.0528C291.279 94.2682 292.177 90.0004 290.43 86.7113C289.235 84.469 287.067 83.255 284.998 82.2082C262.08 70.6313 237.142 66.1034 212.334 64.8955C206.896 64.6292 201.29 64.8584 195.61 65.1433C225.112 45.2393 256.648 28.5324 289.687 15.3052C305.428 16.2839 321.203 16.5007 337.01 15.9556C370.081 14.7849 405.635 11.0003 433.874 31.2056C437.541 33.8257 441.239 37.1767 442.447 42.0082C445.426 53.9381 432.425 62.0772 422.142 65.1247C420.52 73.3877 429.836 78.0829 436.965 79.5633C460.12 84.3871 482.749 91.4571 504.531 100.673C520.097 107.245 537.36 117.738 540.457 136.797C542.612 150.195 536.468 164.051 527.4 172.612C518.331 181.172 506.835 185.254 495.382 187.868C456.489 196.701 416.264 190.637 376.826 195.047C371.561 195.635 366.067 196.521 361.781 200.151C355.01 205.887 353.195 216.652 348.457 224.723C339.054 240.747 320.199 243.671 303.63 244.73C266.73 247.084 229.729 247.432 192.792 245.771C183.501 245.356 174.005 244.835 165.017 247.691C155.571 250.701 147.283 257.242 138.531 262.383C117.731 274.586 94.3049 278.848 71.2627 282.967C47.6506 287.191 23.8403 291.453 0.0300293 290.771C18.3111 254.644 39.9959 220.342 64.7898 188.332C69.0638 187.329 73.3501 186.443 77.6736 185.793Z" fill="white"/>
</g>
<g style="mix-blend-mode:screen" opacity="0.25">
<path d="M326.127 535.979C329.751 530.144 335.288 526.415 340.77 523.144C421.35 475.059 517.439 491.752 607.589 483.353C630.668 481.198 654.082 477.159 674.87 465.229C699.145 451.28 720.31 426.534 747.292 424.564C766.258 423.183 791.382 430.201 799.533 410.089C801.54 405.133 801.429 399.453 802.011 394.021C810.28 320.063 929.945 341.563 941.614 342.201L1027.38 346.89C1056.22 386.668 1080.46 429.587 1099.63 474.824C1072.75 474.533 1045.87 474.328 1018.99 474.025C1005.73 473.882 992.221 473.771 979.541 478.317C962.26 484.511 947.79 498.894 930.552 505.274C917.309 510.174 903.155 510.093 889.274 509.963L738.57 508.576C729.087 508.489 719.331 508.452 710.492 512.503C701.821 516.479 694.765 524.049 686.955 529.952C661.094 549.42 628.494 549.773 598.31 556.537C588.728 558.699 578.179 562.508 573.589 572.598C565.946 589.403 580.403 608.642 594.996 617.029C653.556 650.7 725.693 618.039 787.975 640.622C804.643 646.662 820.098 656.504 836.339 663.962C889.608 688.423 948.88 686.261 1005.77 679.261C1053.93 673.321 1102.28 664.154 1150.5 665.665C1154.17 695.67 1156.01 725.871 1156 756.1C1156 765.73 1155.81 775.306 1155.43 784.828L1074.72 786.953C1023.93 788.297 972.975 789.635 922.344 784.816C893.963 782.115 865.358 777.383 839.027 764.648C823.151 756.973 808.273 746.468 791.952 740.231C763.242 729.254 732.246 732.178 702.093 730.413C655.519 727.675 610.054 713.515 564.992 699.442C495.574 677.763 324.535 645.274 320.143 563.059C319.611 553.619 321.382 543.635 326.127 535.979Z" fill="white"/>
</g>
<path d="M1016.88 1044.17C1016.88 1046.83 1015.16 1048.99 1013.04 1048.98L56.5206 1048.09C54.4022 1048.09 52.6865 1045.92 52.6865 1043.27C52.6865 1040.6 54.4084 1038.45 56.5268 1038.45L1013.08 1039.35C1015.16 1039.35 1016.88 1041.51 1016.88 1044.17Z" fill="#13375B"/>
<path d="M952.906 776.132H964.582V558.593C964.589 552.548 966.993 546.753 971.268 542.478C975.542 538.204 981.338 535.799 987.383 535.793H1000.91V524.104H987.383C978.239 524.116 969.474 527.753 963.008 534.219C956.543 540.684 952.905 549.45 952.894 558.593L952.906 776.132Z" fill="white"/>
<path opacity="0.6" d="M742.213 750.946C679.769 750.946 628.965 812.69 628.965 888.586C628.965 964.483 679.757 1026.23 742.213 1026.23C804.668 1026.23 855.466 964.483 855.466 888.586C855.466 812.69 804.637 750.946 742.213 750.946Z" fill="#E5ECF2"/>
<path d="M661.218 681.3C659.46 681.3 657.774 680.601 656.531 679.358C655.288 678.115 654.59 676.43 654.59 674.672V642.314C654.589 641.443 654.76 640.58 655.093 639.775C655.426 638.971 655.914 638.239 656.529 637.623C657.145 637.007 657.876 636.518 658.68 636.185C659.485 635.851 660.347 635.68 661.218 635.68C662.977 635.68 664.665 636.379 665.909 637.623C667.153 638.867 667.852 640.554 667.852 642.314V674.672C667.85 676.43 667.15 678.116 665.907 679.359C664.663 680.602 662.976 681.3 661.218 681.3V681.3Z" fill="#0E2E35"/>
<path d="M1046.96 529.308C1046.96 530.438 1046.74 531.558 1046.31 532.602C1045.88 533.647 1045.24 534.596 1044.44 535.396C1043.64 536.195 1042.69 536.829 1041.65 537.262C1040.6 537.695 1039.49 537.917 1038.35 537.917H996.334C994.05 537.917 991.86 537.01 990.245 535.396C988.631 533.781 987.724 531.591 987.724 529.308V529.308C987.725 527.025 988.633 524.836 990.247 523.221C991.861 521.607 994.051 520.699 996.334 520.698H1038.35C1040.64 520.699 1042.83 521.607 1044.44 523.221C1046.06 524.836 1046.96 527.025 1046.96 529.308V529.308Z" fill="#0E2E35"/>
<path d="M852.648 780.846H864.336V501.564C864.343 495.516 866.75 489.717 871.028 485.442C875.307 481.167 881.107 478.765 887.156 478.764H900.684V467.075H887.156C878.012 467.087 869.246 470.724 862.781 477.189C856.315 483.655 852.678 492.421 852.666 501.564L852.648 780.846Z" fill="#AAA896"/>
<path d="M758.869 1025.71C729.248 1025.71 701.498 1010.17 680.736 981.957C660.295 954.189 649.053 917.358 649.053 878.242C649.053 839.126 660.301 802.29 680.736 774.528C701.498 746.313 729.248 730.778 758.869 730.778C788.489 730.778 816.245 746.313 837.008 774.528C857.448 802.29 868.691 839.126 868.691 878.242C868.691 917.358 857.424 954.189 836.983 981.957C816.245 1010.17 788.495 1025.71 758.869 1025.71ZM758.869 740.602C703.741 740.602 658.876 802.346 658.876 878.242C658.876 954.139 703.734 1015.88 758.869 1015.88C814.003 1015.88 858.867 954.139 858.867 878.242C858.867 802.346 814.009 740.602 758.869 740.602V740.602Z" fill="#C8C6AF"/>
<path d="M741.766 1040.88C708.64 1040.88 677.682 1023.6 654.59 992.227C632.099 961.672 619.717 921.193 619.717 878.255C619.717 835.317 632.105 794.826 654.59 764.283C677.682 732.903 708.64 715.622 741.766 715.622C774.893 715.622 805.857 732.903 828.943 764.283C851.434 794.838 863.816 835.317 863.816 878.255C863.816 921.193 851.428 961.684 828.943 992.227C805.857 1023.6 774.893 1040.88 741.766 1040.88ZM741.766 733.467C684.322 733.467 637.581 798.413 637.581 878.243C637.581 958.073 684.322 1023.02 741.766 1023.02C799.211 1023.02 845.952 958.073 845.952 878.243C845.952 798.413 799.199 733.467 741.766 733.467V733.467Z" fill="#0F3338"/>
<path d="M704.97 854.255L554.531 998.824L561.007 1005.56L711.447 860.994L704.97 854.255Z" fill="#7F7F79"/>
<path d="M880.825 833.137H746.356V838.309H880.825V833.137Z" fill="#7F7F79"/>
<path d="M748.741 764.71H737.604V1005.01H748.741V764.71Z" fill="#7F7F79"/>
<path d="M824.44 683.151H654.287C653.869 683.151 653.531 683.49 653.531 683.907V697.516C653.531 697.933 653.869 698.271 654.287 698.271H824.44C824.857 698.271 825.195 697.933 825.195 697.516V683.907C825.195 683.49 824.857 683.151 824.44 683.151Z" fill="white"/>
<path d="M830.207 673.606H644.339C643.921 673.606 643.583 673.945 643.583 674.362V687.971C643.583 688.388 643.921 688.726 644.339 688.726H830.207C830.624 688.726 830.962 688.388 830.962 687.971V674.362C830.962 673.945 830.624 673.606 830.207 673.606Z" fill="#1E634F"/>
<path d="M890.129 877.933V744.424H877.74V877.933H740.051V744.424H727.656V888.909H728.35H740.051H877.74H890.129H891.51V877.933H890.129Z" fill="#7F7F79"/>
<path d="M910.774 594.445V489.603H902.158V594.445H806.415V489.603H797.799V603.061H798.276H806.415H902.158H910.774H911.728V594.445H910.774Z" fill="#ADAC9E"/>
<path d="M947.623 535.558H775.041C769.746 535.558 765.453 539.851 765.453 545.146V747.366C765.453 752.662 769.746 756.955 775.041 756.955H947.623C952.918 756.955 957.211 752.662 957.211 747.366V545.146C957.211 539.851 952.918 535.558 947.623 535.558Z" fill="#327F6B"/>
<path d="M931.71 535.558H759.129C753.833 535.558 749.54 539.851 749.54 545.146V747.366C749.54 752.662 753.833 756.955 759.129 756.955H931.71C937.006 756.955 941.299 752.662 941.299 747.366V545.146C941.299 539.851 937.006 535.558 931.71 535.558Z" fill="#3C8F7C"/>
<path d="M933.525 445.445H786.086C783.992 445.445 782.295 447.143 782.295 449.236V517.44C782.295 519.533 783.992 521.231 786.086 521.231H933.525C935.618 521.231 937.316 519.533 937.316 517.44V449.236C937.316 447.143 935.618 445.445 933.525 445.445Z" fill="#327F6B"/>
<path d="M920.66 445.445H773.22C771.127 445.445 769.43 447.143 769.43 449.236V517.44C769.43 519.533 771.127 521.231 773.22 521.231H920.66C922.753 521.231 924.45 519.533 924.45 517.44V449.236C924.45 447.143 922.753 445.445 920.66 445.445Z" fill="#3C8F7C"/>
<path d="M951.203 762.325H668.49C667.662 762.325 666.991 762.996 666.991 763.824V791.06C666.991 791.888 667.662 792.559 668.49 792.559H951.203C952.031 792.559 952.702 791.888 952.702 791.06V763.824C952.702 762.996 952.031 762.325 951.203 762.325Z" fill="#327F6B"/>
<path d="M633.586 945.845C633.586 945.845 637.116 958.382 629.919 966.397C622.721 974.413 593.565 981.641 589.657 985.983C585.748 990.325 585.909 994.116 585.909 994.116L667.164 994.222L666.978 969.761L663.745 952.095L633.586 945.845Z" fill="#F7A491"/>
<path d="M624.753 970.349C624.753 970.349 644.611 977.367 655.272 973.787C665.089 970.492 665.548 968.59 668.409 970.529C671.271 972.468 671.655 995.405 671.655 995.405L580.285 995.461C573.936 995.132 570.858 990.375 576.135 986.529C579.752 983.896 583.896 982.193 586.256 980.917C593.516 977.045 624.753 970.349 624.753 970.349Z" fill="#0D2842"/>
<path d="M683.783 945.845C683.783 945.845 687.314 958.382 680.116 966.397C672.919 974.413 643.763 981.641 639.854 985.983C635.946 990.325 636.138 994.116 636.138 994.116L717.386 994.222L717.207 969.761L713.973 952.095L683.783 945.845Z" fill="#F7A491"/>
<path d="M674.95 970.349C674.95 970.349 695.571 979.356 705.791 974.685C716.011 970.015 715.745 968.609 718.607 970.547C721.468 972.486 721.859 995.423 721.859 995.423L630.489 995.479C624.14 995.151 621.061 990.394 626.339 986.547C629.956 983.914 634.1 982.211 636.46 980.935C643.726 977.045 674.95 970.349 674.95 970.349Z" fill="#2F5073"/>
<path d="M910.514 698.681C901.687 695.373 820.525 684.552 820.525 684.552C820.525 684.552 671.19 697.305 658.059 720.218C654.435 726.529 592.822 923.794 589.514 943.504C611.07 959.052 700.098 968.783 727.644 963.722C727.644 963.722 756.967 835.726 745.093 780.846C758.856 775.333 864.72 797.409 903.774 766.42C931.617 744.344 919.365 701.982 910.514 698.681Z" fill="#13375B"/>
<path d="M813.941 442.8C800.314 410.25 816.598 389.53 832.251 387.164C848.355 376.33 886.53 377.483 894.533 415.298C902.536 453.113 883.699 467.075 883.699 467.075C896.893 473.374 883.842 514.094 851.031 495.617C829.246 463.228 813.941 442.8 813.941 442.8Z" fill="#FFF8E6"/>
<path d="M579.703 471.77C581.406 473.209 583.006 474.766 584.491 476.428C585.934 478.144 587.792 479.271 589.223 480.535C592.054 483.013 594.092 484.908 594.123 484.735C594.154 484.561 595.071 484.623 593.757 483.025C592.184 481.099 587.953 477.729 585.847 474.731C584.652 473.028 581.945 469.615 581.945 469.615C581.945 469.615 578.792 463.724 579.065 463.421C580.558 461.847 583.828 465.279 585.154 467.812C586.808 469.002 589.558 472.668 589.558 472.668C589.558 472.668 596.737 478.863 597.61 477.903C597.976 477.481 594.011 473.158 590.797 468.326C587.792 463.836 585.463 458.831 586.238 458.125C587.557 456.929 591.416 461.569 591.416 461.569C591.416 461.569 593.956 464.963 594.879 466.028C595.963 467.267 599.493 470.767 599.493 470.767C599.493 470.767 612.321 482.381 613.058 481.377C613.795 480.374 614.625 477.042 614.074 476.038C613.523 475.035 611.597 473.74 611.014 472.755C610.432 471.77 610.568 470.024 611.708 469.28C612.848 468.537 617.283 472.34 617.283 472.34C617.283 472.34 620.9 475.437 622.034 478.534C625.967 489.25 624.053 489.436 624.592 490.793C625.211 492.403 643.992 506.092 643.992 506.092C643.992 506.092 699.027 546.781 702.068 548.875L688.732 567.315C685.016 565.661 623.774 514.745 617.593 509.344C617.593 509.344 607.923 505.559 601.927 502.989C595.932 500.418 591.305 495.327 589.719 494.348C585.846 491.524 582.326 488.247 579.232 484.586C574.785 479.383 581.313 482.35 581.313 482.35C581.313 482.35 591.224 490.563 591.72 489.684C592.097 489.009 586.424 484.834 581.443 479.154C580.167 477.686 578.91 476.23 577.764 474.886C574.741 471.362 575.986 468.568 579.703 471.77Z" fill="#F8A492"/>
<path d="M706.169 537.886C706.169 537.886 637.674 497.915 634.732 496.881C631.789 495.847 620.968 513.091 615.586 519.471C613.857 521.515 682.08 571.533 696.109 576.395C711.421 581.704 769.411 558.946 784.865 550.677C797.83 543.746 823.232 526.049 827.698 512.273C830.727 502.951 789.561 499.185 782.326 497.562C755.92 509.821 706.169 537.886 706.169 537.886Z" fill="#D1563A"/>
<path d="M835.707 489.968C824.167 489.968 795.6 493.338 782.344 497.556C782.344 497.556 776.33 582.775 791.109 644.358C795.253 658.548 788.693 692.585 788.693 692.585L912.799 699.9C912.799 699.9 898.237 602.758 903.248 585.234C919.811 527.319 907.714 503.658 907.714 503.658C907.714 503.658 900.665 498.324 877.065 493.487C864.987 491.028 848.033 489.95 835.707 489.968Z" fill="#F47458"/>
<path d="M666.916 610.271C669.188 610.684 671.428 611.257 673.619 611.987C675.799 612.786 678.054 612.836 679.992 613.226C683.833 614.019 686.62 614.644 686.564 614.465C686.509 614.285 687.357 613.845 685.326 613.121C682.91 612.204 677.372 611.355 673.928 609.745C671.977 608.834 667.784 607.162 667.784 607.162C667.784 607.162 661.912 603.495 662.011 603.086C662.537 600.906 667.257 602.318 669.747 603.898C671.847 604.114 676.208 605.991 676.208 605.991C676.208 605.991 685.864 607.849 686.118 606.542C686.23 605.979 680.432 604.139 675.025 601.469C670.007 598.992 665.331 595.684 665.665 594.656C666.235 592.903 672.095 595.083 672.095 595.083C672.095 595.083 676.127 596.824 677.509 597.301C679.125 597.864 684.105 599.159 684.105 599.159C684.105 599.159 701.622 602.975 701.765 601.699C701.907 600.423 700.935 596.973 699.906 596.372C698.878 595.771 696.475 595.604 695.465 595.003C694.456 594.402 693.65 592.779 694.295 591.522C694.939 590.264 700.91 591.379 700.91 591.379C700.91 591.379 705.772 592.314 708.386 594.476C717.448 602.083 715.819 603.235 717.015 604.182C718.421 605.297 742.336 607.899 742.336 607.899C742.336 607.899 812.795 616.081 816.617 616.391L814.139 639.848C809.946 640.282 728.66 626.11 720.285 624.444C720.285 624.444 709.65 626.029 702.942 626.816C696.233 627.603 689.438 625.41 687.506 625.348C682.568 624.805 677.713 623.676 673.042 621.984C666.359 619.6 673.761 618.887 673.761 618.887C673.761 618.887 686.917 621.148 686.899 620.126C686.899 619.327 679.639 618.503 672.219 615.939C670.311 615.276 668.428 614.62 666.706 614.006C662.246 612.458 661.918 609.305 666.916 610.271Z" fill="#F8A492"/>
<path d="M823.492 603.761C823.492 603.761 736.415 602.473 733.231 603.067C730.047 603.662 730.047 623.787 728.499 632.297C728.003 635.023 819.193 646.426 834.332 643.552C850.827 640.418 892.383 594.773 902.009 579.368C910.061 566.448 922.617 532.72 919.52 518.046C917.426 508.136 906.995 500.703 899.655 502.957C870.376 512.013 823.492 603.761 823.492 603.761Z" fill="#D1563A"/>
<path d="M833.136 471.213L828.639 486.388L826.249 494.862C826.249 494.862 822.191 504.525 833.359 506.352C854.803 509.858 862.639 492.774 862.639 492.774L866.702 445.823L833.136 471.213Z" fill="#F7A491"/>
<path d="M865.383 461.029C856.674 476.143 839.987 484.053 828.602 486.518L833.136 471.2L866.702 445.804L865.383 461.029Z" fill="#F47458"/>
<path d="M855.429 398.816C841.288 392.306 824.186 399.435 819.893 413.223C817.645 420.414 815.894 427.75 814.653 435.181C811.333 455.343 819.862 476.403 829.835 477.624C839.807 478.844 869.248 469.132 874.383 440.558C877.555 422.911 870.27 405.648 855.429 398.816Z" fill="#F7A491"/>
<path d="M866.715 441.927C866.095 446.387 868.759 450.394 872.717 450.877C876.675 451.361 880.41 448.14 881.054 443.68C881.698 439.22 879.01 435.212 875.046 434.729C871.082 434.246 867.334 437.492 866.715 441.927Z" fill="#F7A491"/>
<path d="M971.08 683.151H766.302C765.884 683.151 765.546 683.49 765.546 683.907V697.516C765.546 697.933 765.884 698.271 766.302 698.271H971.08C971.497 698.271 971.836 697.933 971.836 697.516V683.907C971.836 683.49 971.497 683.151 971.08 683.151Z" fill="white"/>
<path d="M786.259 681.3C785.388 681.3 784.526 681.13 783.721 680.797C782.916 680.464 782.185 679.976 781.569 679.361C780.952 678.745 780.464 678.014 780.13 677.21C779.797 676.405 779.625 675.543 779.625 674.672V642.314C779.624 641.442 779.795 640.579 780.128 639.774C780.461 638.969 780.95 638.237 781.566 637.621C782.182 637.005 782.914 636.516 783.719 636.183C784.525 635.85 785.388 635.679 786.259 635.68V635.68C787.13 635.68 787.992 635.851 788.797 636.185C789.601 636.518 790.332 637.007 790.948 637.623C791.563 638.239 792.051 638.971 792.384 639.775C792.717 640.58 792.888 641.443 792.887 642.314V674.672C792.887 676.43 792.188 678.115 790.946 679.358C789.703 680.601 788.017 681.3 786.259 681.3Z" fill="#0E2E35"/>
<path d="M980.526 673.606H756.862C756.444 673.606 756.106 673.945 756.106 674.362V687.971C756.106 688.388 756.444 688.726 756.862 688.726H980.526C980.943 688.726 981.282 688.388 981.282 687.971V674.362C981.282 673.945 980.943 673.606 980.526 673.606Z" fill="#1E634F"/>
<path d="M885.285 864.82L734.846 1009.39L741.323 1016.13L891.762 871.56L885.285 864.82Z" fill="#7F7F79"/>
<path d="M900.343 880.07C900.343 891.015 893.659 899.891 885.409 899.891C877.158 899.891 870.469 891.021 870.469 880.07C870.469 869.119 877.158 860.249 885.409 860.249C893.659 860.249 900.343 869.125 900.343 880.07Z" fill="#1B1811"/>
<path d="M867.155 1040.88C834.022 1040.88 803.064 1023.6 779.972 992.227C757.487 961.672 745.105 921.193 745.105 878.255C745.105 835.317 757.493 794.826 779.972 764.283C803.064 732.903 834.022 715.622 867.155 715.622C900.287 715.622 931.239 732.903 954.331 764.283C976.816 794.838 989.198 835.317 989.198 878.255C989.198 921.193 976.809 961.684 954.331 992.227C931.239 1023.6 900.281 1040.88 867.155 1040.88ZM867.155 733.467C809.704 733.467 762.969 798.413 762.969 878.243C762.969 958.073 809.704 1023.02 867.155 1023.02C924.605 1023.02 971.334 958.073 971.334 878.243C971.334 798.413 924.599 733.467 867.155 733.467V733.467Z" fill="#071B1E"/>
<path d="M748.846 1005.6H534.61C534.336 1005.6 534.114 1005.82 534.114 1006.1V1015.05C534.114 1015.33 534.336 1015.55 534.61 1015.55H748.846C749.12 1015.55 749.342 1015.33 749.342 1015.05V1006.1C749.342 1005.82 749.12 1005.6 748.846 1005.6Z" fill="#C8C6AF"/>
<path d="M747.75 1010.97H539.478C537.421 1010.97 535.449 1010.15 533.994 1008.7C532.54 1007.24 531.723 1005.27 531.723 1003.22C531.723 1001.16 532.54 999.186 533.994 997.732C535.449 996.277 537.421 995.46 539.478 995.46H747.75C749.807 995.46 751.779 996.277 753.234 997.732C754.688 999.186 755.505 1001.16 755.505 1003.22V1003.22C755.505 1005.27 754.688 1007.24 753.234 1008.7C751.779 1010.15 749.807 1010.97 747.75 1010.97V1010.97Z" fill="#3C8F7C"/>
<path opacity="0.6" d="M887.118 740.602C831.99 740.602 787.126 802.345 787.126 878.242C787.126 954.139 831.984 1015.88 887.118 1015.88C942.252 1015.88 987.117 954.139 987.117 878.242C987.117 802.345 942.283 740.602 887.118 740.602Z" fill="#E5ECF2"/>
<path d="M887.155 1025.71C857.529 1025.71 829.779 1010.17 809.016 981.957C788.576 954.189 777.333 917.358 777.333 878.242C777.333 839.126 788.588 802.29 809.016 774.528C829.779 746.313 857.529 730.778 887.155 730.778C916.782 730.778 944.526 746.313 965.288 774.528C985.729 802.29 996.972 839.126 996.972 878.242C996.972 917.358 985.723 954.189 965.288 981.957C944.544 1010.17 916.794 1025.71 887.155 1025.71ZM887.155 740.602C832.028 740.602 787.163 802.346 787.163 878.242C787.163 954.139 832.028 1015.88 887.155 1015.88C942.283 1015.88 987.148 954.139 987.148 878.242C987.148 802.346 942.283 740.602 887.155 740.602V740.602Z" fill="white"/>
<path d="M261.095 285.203C260.172 262.805 263.455 240.692 273.433 219.842C282.012 201.879 303.258 191.721 322.627 191.696C384.135 191.615 391.952 273.229 431.105 304.714C443.072 314.334 456.446 322.163 467.762 332.538C509.567 370.843 490.73 441.753 452.327 475.338C425.692 498.641 383.832 511.884 351.003 493.66C333.863 484.152 320.856 468.345 311.589 451.026C298.433 426.448 289.959 398.085 280.619 371.884C270.671 344.004 262.321 314.972 261.095 285.203Z" fill="#F47458"/>
<path d="M410.888 381.385C438.761 399.286 451.236 408.02 453.194 413.428C455.151 418.835 422.712 421.294 414.4 417.714C406.087 414.134 390.503 400.259 390.503 400.259C406.546 386.502 410.888 381.385 410.888 381.385Z" fill="#F7A491"/>
<path d="M386.83 1036.06C381.713 1032.28 377.588 1029.79 361.254 1021.87C360.189 1021.36 356.299 1018.89 354.905 1018.03C351.362 1015.86 347.8 1012.46 344.734 1009.02C341.804 1005.75 340.398 995.281 339.779 986.931C341.457 968.293 368.47 669.301 374.169 636.962C380.047 603.55 371.072 552.591 371.072 552.591L350.216 544.725L310.623 681.913L313.72 786.358C313.72 786.358 304.429 816.468 303.233 834.456C302.038 852.444 316.693 998.477 316.693 998.477C316.693 1003.7 316.489 1008.42 315.907 1011.37C314.835 1016.84 308.852 1028.1 311.571 1033.22C314.29 1038.34 317.455 1039.64 317.455 1039.64L388.638 1040.8C392.516 1040.86 389.951 1038.35 386.83 1036.06Z" fill="#F48C7F"/>
<path d="M278.89 544.7C278.89 544.7 254.188 581.964 248.304 612.836C242.419 643.707 252.64 738.453 241.311 778.839C235.185 800.716 211.969 834.499 208.444 862.769C204.92 891.039 192.612 972.666 192.612 972.666C190.754 981.232 187.843 991.824 184.064 996.755C181.754 999.771 177.529 1003.57 174.773 1009.03C170.437 1017.51 172.841 1030.14 176.012 1037.09C177.647 1040.67 175.9 1040.65 179.617 1041.8C190.636 1045.21 202.356 1039.47 207.051 1028.9C210.305 1021.39 212.129 1013.35 212.427 1005.18C212.764 996.697 214.073 988.282 216.33 980.099V980.099L295.293 786.408L352.452 619.247L367.101 533.148L278.89 544.7Z" fill="#F79C8D"/>
<path d="M209.182 1023.3C192.092 1026.4 180.726 1016.41 174.804 1008.91C170.468 1017.4 168.344 1030.09 171.54 1037.06C174.352 1043.21 182.578 1043.04 189.051 1043.25C195.895 1043.51 201.197 1039.7 204.592 1033.73C206.464 1030.41 208.002 1026.92 209.182 1023.3V1023.3Z" fill="#50BFA5"/>
<path d="M354.899 1018.02C336.087 1022.86 322.181 1019.57 314.402 1016.43C312.395 1022.13 309.731 1029.27 311.143 1033.4C312.872 1038.45 315.331 1039.59 317.505 1039.64C334.687 1040.1 380.45 1040.71 393.55 1040.88C393.96 1040.88 394.362 1040.77 394.709 1040.55C395.055 1040.33 395.333 1040.02 395.508 1039.65C395.683 1039.28 395.748 1038.87 395.697 1038.46C395.645 1038.06 395.479 1037.67 395.217 1037.36C391.965 1033.47 356.317 1018.88 354.899 1018.02Z" fill="#50BFA5"/>
<path d="M294.884 779.879L299.344 780.164H299.573C301.035 780.251 302.509 780.338 303.983 780.412H304.255C305.73 780.492 307.216 780.561 308.703 780.623H308.926C310.443 780.684 311.955 780.746 313.472 780.796C330.333 781.347 351.158 781.13 364.525 778.863C371.338 710.66 373.878 648.415 376.399 634.639C382.512 601.228 371.066 548.491 371.066 548.491L371.988 535.972L369.059 527.982L277.317 539.546C277.317 539.546 251.63 576.81 245.51 607.682C239.39 638.554 250.001 733.305 238.238 773.685C238.238 773.722 264.427 777.804 294.884 779.879Z" fill="#13375B"/>
<path d="M417.317 381.707C417.317 381.707 365.032 336.589 344.548 330.581C324.064 324.573 295.807 340.219 295.441 359.693C295.076 379.168 387.183 417.423 387.183 417.423L417.317 381.707Z" fill="#247562"/>
<path d="M298.675 320.422C298.675 320.422 264.7 318.323 251.258 332.557C237.817 346.791 281.077 459.419 283.517 477.537C285.958 495.655 271.061 543.814 271.061 543.814C271.061 543.814 350.873 559.424 373.686 544.75C373.686 544.75 377.879 413.192 375.432 400.253C372.986 387.313 350.873 335.933 345.985 330.754C341.098 325.576 298.675 320.422 298.675 320.422Z" fill="#3C8F7C"/>
<path d="M309.985 276.326C309.985 276.326 309.812 277.299 309.496 278.959C307.978 286.894 302.143 313.225 298.204 320.46C293.441 329.206 314.513 357.11 334.786 353.704C340.826 352.694 329.682 328.066 330.221 325.458C331.243 320.466 332.637 313.69 334.056 306.672C334.861 302.732 335.672 298.737 336.434 294.983L340.374 275.589L309.985 276.326Z" fill="#F7A491"/>
<path d="M309.496 278.959C309.812 277.299 309.985 276.326 309.985 276.326L340.374 275.595L336.434 294.989C335.672 298.706 334.867 302.695 334.068 306.616C329.379 305.94 324.479 303.723 319.561 299.542C314.563 295.309 310.772 289.83 308.573 283.66C308.951 281.796 309.242 280.16 309.496 278.959Z" fill="#F47458"/>
<path d="M330.438 209.213C330.438 209.213 316.117 207.609 307.136 218.888C298.154 230.168 288.485 265.066 310.784 284.032C333.083 302.999 355.122 281.554 358.386 258.766C361.65 235.978 362.926 208.395 330.438 209.213Z" fill="#F7A491"/>
<path d="M364.989 258.425C362.332 263.455 357.86 266.242 355.01 264.619C352.161 262.997 352.012 257.657 354.67 252.634C357.327 247.61 361.799 244.817 364.648 246.409C367.498 248.001 367.646 253.402 364.989 258.425Z" fill="#F7A491"/>
<path d="M332.042 205.484C332.042 205.484 312.903 238.666 299.213 240.171C285.524 241.676 283.728 259.336 283.728 259.336C283.728 259.336 288.621 218.708 302.174 210.879C315.727 203.05 332.042 205.484 332.042 205.484Z" fill="#F47458"/>
<path d="M302.806 248.533C303.921 254.43 301.679 259.831 297.807 260.606C293.936 261.38 289.891 257.23 288.776 251.314C287.661 245.399 289.904 240.041 293.756 239.279C297.609 238.517 301.697 242.643 302.806 248.533Z" fill="#F7A491"/>
<path d="M321.63 263.87L341.179 266.676C341.179 266.676 339.667 274.034 331.033 273.049C320.49 271.854 321.63 263.87 321.63 263.87Z" fill="white"/>
<path d="M176.96 658.753L179.611 652.237L184.182 655.532L187.279 664.526L185.074 666.316C185.074 666.316 178.936 660.351 176.96 658.753Z" fill="#B75742"/>
<path d="M219.854 699.64L218.9 674.059C218.188 655.012 207.466 638.566 194.997 637.402C182.528 636.237 168.511 651.828 163.747 672.176L157.355 699.504C156.736 702.186 153.242 702.192 153.911 699.504L160.725 672.076C166.349 649.406 181.909 632.087 195.412 633.468C208.915 634.85 220.808 653.104 221.941 674.164L223.304 699.647C223.434 702.155 219.953 702.161 219.854 699.64Z" fill="#3C8F7C"/>
<path d="M239.496 678.035L234.652 677.924L246.774 845.767L276.351 845.977L239.496 678.035Z" fill="#F47458"/>
<path d="M246.774 845.767H71.1264L104.271 678.426L234.652 677.924L246.774 845.767Z" fill="#F7CC7F"/>
<path d="M116.554 755.512H109.121V735.833H116.554C129.37 735.889 129.37 755.45 116.554 755.512ZM114.163 750.928H116.554C122.823 750.928 122.823 740.398 116.554 740.398H114.163V750.928Z" fill="#3C8F7C"/>
<path d="M128.775 745.7C128.775 732.073 148.962 732.073 148.962 745.7C148.962 759.327 128.775 759.334 128.775 745.7ZM143.815 745.7C143.815 738.614 133.947 738.614 133.947 745.7C133.947 752.786 143.815 752.836 143.815 745.7V745.7Z" fill="#3C8F7C"/>
<path d="M157.95 745.836V755.512H152.753V735.746H154.58L164.528 745.471V735.833H169.675V755.536H167.873L157.95 745.836Z" fill="#3C8F7C"/>
<path d="M186.034 753.034H178.273L177.121 755.512H172.203V754.775L181.054 735.573H183.222L192.104 754.775V755.512H187.217L186.034 753.034ZM182.126 743.532L179.933 748.704H184.374L182.126 743.532Z" fill="#3C8F7C"/>
<path d="M191.652 740.33V735.833H206.27V740.33H201.464V755.512H196.508V740.33H191.652Z" fill="#3C8F7C"/>
<path d="M221.669 740.33H214.391V743.111H221.08V747.583H214.391V751.04H221.904V755.512H209.386V735.833H221.669V740.33Z" fill="#3C8F7C"/>
<path d="M155.28 829.445L71.1264 845.766H246.774L155.28 829.445Z" fill="#F47458"/>
<path d="M206.351 696.011L205.397 670.429C204.685 651.382 193.962 634.943 181.494 633.772C169.025 632.601 155.008 648.204 150.244 668.534L143.858 695.887C143.239 698.569 139.751 698.575 140.42 695.887L147.234 668.459C152.852 645.789 168.418 628.47 181.921 629.851C195.424 631.232 207.317 649.487 208.457 670.547L209.819 696.036C209.925 698.526 206.419 698.532 206.351 696.011Z" fill="#3C8F7C"/>
<path d="M199.296 615.604C199.172 615.072 220.585 524.216 229.232 504.11C237.879 484.003 271.519 390.72 271.519 390.72L237.39 376.907C237.39 376.907 204.641 452.407 191.844 485.422C179.047 518.437 179.784 581.134 179.214 598.31C179.214 598.558 177.356 612.836 177.325 613.083C177.073 614.37 176.73 615.637 176.297 616.874C175.777 617.71 174.284 623.477 174.216 623.973C174.147 624.468 172.871 626.45 172.357 627.255C171.843 628.061 170.654 639.768 170.4 641.651C170.146 643.534 170.976 647.795 170.976 647.795L170.518 655.619C170.183 661.367 176.142 659.849 176.142 659.849C175.999 662.556 176.947 663.974 178.471 664.482C179.995 664.99 181.797 664.557 182.088 664.674C182.379 664.792 182.485 665.641 182.485 665.641C182.33 667.363 184.275 668.688 185.526 668.93C187.025 669.046 188.509 668.568 189.658 667.598C190.277 666.848 190.729 666.979 190.729 666.979C191.999 668.063 196.861 668.013 197.983 666.446C199.104 664.879 200.126 656.628 200.634 655.916C201.142 655.203 202.219 653.909 202.387 652.72C202.554 651.53 206.53 643.069 206.76 641.384C206.989 639.7 204.524 634.001 203.978 630.588C203.433 627.175 200.107 621.873 199.302 620.349C198.986 619.73 199.073 617.803 199.302 615.654L199.296 615.604Z" fill="#F7A491"/>
<path d="M252.726 450.45C252.726 450.45 291.13 393.036 294.555 371.939C297.981 350.842 279.02 324.758 259.639 326.765C240.258 328.772 207.131 424.843 207.131 424.843L252.726 450.45Z" fill="#3C8F7C"/>
<path d="M318.948 437.727C308.474 425.227 317.294 397.849 337.952 380.444C358.609 363.038 386.185 360.35 390.819 372.305C404.446 382.791 398.871 408.85 379.05 427.203C357.222 447.464 329.422 450.233 318.948 437.727Z" fill="#EBED68"/>
<path d="M390.304 372.453C394.529 369.579 392.163 364.779 389.685 364.587L389.865 362.858C393.315 365.547 393.538 368.229 393.073 369.573C392.581 370.876 391.681 371.986 390.509 372.738C390.286 372.769 389.852 372.744 390.304 372.453Z" fill="#9E5720"/>
<path d="M434.729 423.945C433.8 426.578 431.923 427.383 426.875 428.281C421.826 429.179 423.709 429.885 417.806 423.258C416.589 421.858 415.231 420.586 413.755 419.461C414.815 417.937 414.375 415.211 412.603 412.92C412.245 412.457 411.842 412.029 411.402 411.644C410.039 410.405 408.478 409.785 407.171 409.897C407.444 407.735 406.849 405.765 405.753 404.7C405.309 404.194 404.702 403.86 404.037 403.758C402.061 403.486 400.141 405.561 399.608 408.441C399.089 408.655 398.616 408.966 398.214 409.358C398.257 408.805 398.245 408.249 398.177 407.698C398.027 406.118 397.338 404.637 396.226 403.505C395.901 403.132 395.494 402.841 395.037 402.654C394.58 402.467 394.086 402.389 393.594 402.427C391.519 402.681 390.15 405.388 390.534 408.478C390.62 409.202 390.806 409.911 391.085 410.584L390.93 410.622C390.596 410.229 390.223 409.872 389.815 409.556C388.452 408.435 386.879 408.014 385.615 408.627C385.474 408.701 385.341 408.791 385.219 408.893C384.855 408.107 384.327 407.408 383.671 406.843C383.121 406.317 382.507 405.864 381.843 405.493C379.229 404.012 376.454 403.981 375.649 405.412C375.073 406.434 375.649 407.89 376.968 409.228C377.585 409.861 378.29 410.402 379.062 410.832C379.395 411.019 379.738 411.187 380.09 411.334C379.188 411.921 378.529 412.814 378.232 413.849C378.045 413.505 377.838 413.172 377.613 412.851C377.174 412.21 376.656 411.628 376.07 411.117C375.246 410.305 374.201 409.751 373.066 409.525C372.726 409.06 372.338 408.633 371.908 408.249C371.643 407.998 371.364 407.762 371.072 407.543C368.594 405.722 365.658 405.493 364.531 407.035C363.874 407.933 363.998 409.234 364.692 410.523C363.711 410.165 362.632 410.189 361.669 410.591C359.811 409.451 357.921 409.24 356.968 410.238C356.727 410.505 356.563 410.833 356.491 411.185C356.189 410.749 355.831 410.356 355.425 410.015C355.11 409.698 354.727 409.456 354.306 409.307C353.885 409.158 353.435 409.106 352.991 409.154C350.904 409.507 349.683 412.585 350.259 416.041C350.433 417.127 350.794 418.175 351.325 419.139L351.188 419.362C350.865 418.895 350.505 418.456 350.111 418.048L349.981 417.924C347.59 415.447 344.474 414.611 343.012 416.029C341.55 417.448 342.306 420.594 344.697 423.053L344.784 423.134L344.846 423.202C345.795 424.206 346.96 424.981 348.252 425.469C347.978 425.658 347.731 425.885 347.521 426.144C347.41 426.045 347.292 425.94 347.168 425.847C345.958 424.879 344.483 424.3 342.938 424.187C339.655 423.871 336.83 425.326 336.626 427.433C336.606 427.926 336.701 428.417 336.903 428.867C337.105 429.318 337.409 429.715 337.791 430.028C339.049 431.17 340.659 431.852 342.356 431.96C344.716 432.19 346.828 431.496 347.93 430.307C348.13 430.552 348.349 430.78 348.587 430.988C346.109 431.75 344.375 433.466 344.629 435.163C344.722 435.722 345.001 436.232 345.422 436.612C346.493 437.789 348.717 438.396 351.145 438.031C353.288 437.709 355.041 436.711 355.896 435.497L357.661 436.234C357.139 436.475 356.685 436.842 356.339 437.301C355.993 437.761 355.766 438.299 355.679 438.867C355.654 439.382 355.747 439.895 355.952 440.368C356.157 440.841 356.469 441.26 356.862 441.592C358.077 442.736 359.651 443.423 361.316 443.537C364.469 443.841 367.194 442.404 367.51 440.304L369.294 441.035C368.179 441.983 367.584 443.141 367.844 444.237C367.951 444.675 368.178 445.074 368.501 445.389C369.312 446.349 370.904 446.888 372.75 446.826C371.97 448.332 371.871 449.837 372.676 450.803C372.713 450.846 372.763 450.877 372.8 450.921C373.822 452.16 375.971 452.122 378.059 451.02L378.096 451.057C379.037 452.482 381.769 452.525 384.321 451.113C385.438 450.524 386.397 449.674 387.114 448.635C387.887 448.708 388.667 448.604 389.394 448.332C388.423 448.949 387.598 449.772 386.978 450.741C385.467 453.021 385.238 455.554 386.322 456.725C386.456 456.909 386.622 457.068 386.811 457.195C388.291 458.168 390.837 456.935 392.491 454.427C394.04 452.073 394.238 449.471 393.036 448.338C393.16 448.338 393.284 448.338 393.408 448.338C394.321 448.324 395.226 448.157 396.084 447.842C396.277 449.352 396.983 450.749 398.084 451.8L398.152 451.881L398.338 452.067V452.098C398.382 452.135 398.413 452.178 398.45 452.215C400.618 454.29 403.405 454.935 404.601 453.652C405.796 452.37 405.084 449.713 402.971 447.644C403.337 447.046 403.821 446.53 404.395 446.127C404.968 445.725 405.618 445.444 406.304 445.303C410.584 444.169 410.9 446.43 412.572 449.824C412.572 449.824 416.908 450.215 413.985 448.201C411.061 446.188 412.126 446.572 412.195 444.727C412.263 442.881 413.669 444.832 414.109 443.29C414.548 441.747 415.812 441.369 418.345 438.303C423.821 431.57 426.571 430.982 426.571 430.982C431.415 428.975 433.286 428.715 435.373 427.364C438.043 425.376 439.028 424.571 440.112 423.375C441.196 422.18 435.491 422.434 434.729 423.945ZM419.497 427.47C420.773 428.777 421.418 429.328 418.11 428.944C415.1 428.597 415.242 427.036 414.133 424.422C413.977 422.938 413.309 421.554 412.244 420.507C412.532 420.433 412.806 420.311 413.056 420.148C415.781 422.403 418.438 426.342 419.497 427.47ZM409.128 428.349C408.729 428.202 408.313 428.106 407.89 428.064C407.952 427.99 408.014 427.922 408.069 427.841C408.271 427.546 408.41 427.213 408.478 426.863C410.386 427.841 412.38 427.817 413.433 426.64C413.509 426.553 413.579 426.462 413.644 426.367C414.177 428.708 411.972 429.439 409.141 428.349H409.128ZM409.835 434.723C409.097 434.935 408.389 435.241 407.729 435.634C407.561 435.739 407.406 435.85 407.245 435.962C407.071 435.638 406.876 435.326 406.663 435.027C408.602 434.407 409.946 433.131 409.946 431.632C409.946 431.589 409.946 431.552 409.946 431.508C410.943 431.917 410.504 433.428 409.847 434.723H409.835ZM398.964 445.389C398.964 445.389 398.964 445.352 398.964 445.334L399.013 445.402L398.964 445.389ZM409.872 430.988C409.78 430.645 409.627 430.322 409.42 430.034C415.781 430.263 411.296 430.554 409.884 430.988H409.872ZM390.181 447.762L390.379 447.836C390.15 447.912 389.929 448.008 389.716 448.121C389.884 448.013 390.043 447.893 390.193 447.762H390.181ZM404.427 444.634C402.69 444.925 400.909 444.832 399.212 444.361C399.215 444.318 399.215 444.274 399.212 444.231C399.193 443.672 399.014 443.131 398.698 442.67C399.651 441.907 400.368 440.889 400.766 439.734C401.796 441.115 403.322 442.041 405.022 442.317C405.418 442.728 405.903 443.043 406.44 443.236C406.977 443.429 407.552 443.496 408.119 443.432C406.934 443.973 405.691 444.376 404.415 444.634H404.427ZM421.065 432.79C419.262 435.39 417.061 437.69 414.542 439.604C415.285 438.365 415.453 437.046 414.864 436.042C414.725 435.809 414.549 435.6 414.344 435.423C413.532 434.593 412.151 434.296 410.627 434.543C411.783 433.425 413.085 432.468 414.499 431.7C416.63 430.678 422.403 430.53 421.052 432.79H421.065Z" fill="#2C2F54"/>
<path d="M351.913 431.019C348.946 429.718 340.974 421.882 330.63 427.823C320.998 433.36 319.481 449.192 323.649 457.109C327.75 464.901 337.605 468.673 341.036 468.524C344.468 468.376 344.325 468.524 345.62 469.243C346.915 469.961 355.704 470.401 360.87 468.159C365.664 466.084 374.689 456.96 375.593 445.457C376.498 433.955 366.135 427.011 359.024 429.012C351.913 431.013 353.462 431.7 351.913 431.019Z" fill="#BD4528"/>
<g style="mix-blend-mode:multiply">
<g style="mix-blend-mode:multiply">
<path d="M349.689 431.601L350.569 431.23C350.871 431.136 351.183 431.076 351.498 431.05C351.747 431.034 351.998 431.053 352.241 431.106C352.342 431.127 352.44 431.161 352.533 431.205L352.576 431.317C352.321 431.421 352.075 431.545 351.839 431.688L350.29 432.661C349.755 432.977 349.164 433.187 348.55 433.28C348.262 433.307 347.972 433.254 347.714 433.125C347.714 433.125 347.998 432.487 349.689 431.601Z" fill="#D1D1D1"/>
</g>
</g>
<path d="M400.296 444.974C398.785 445.298 397.419 446.1 396.4 447.26C396.174 446.879 395.862 446.557 395.489 446.319C395.006 446.033 394.451 445.893 393.891 445.916C393.759 444.697 393.282 443.541 392.516 442.583C394.243 442.461 395.852 441.662 396.994 440.36C398.914 440.112 400.481 437.709 400.581 434.698C400.686 431.477 399.075 428.808 396.982 428.74C394.888 428.671 393.104 431.217 392.999 434.451C392.999 434.674 392.999 434.89 392.999 435.107C392.558 435.073 392.115 435.073 391.673 435.107C392.2 433.137 391.847 431.31 390.583 430.505C389.481 429.805 387.963 430.04 386.557 430.976C386.551 430.674 386.49 430.376 386.377 430.096C386.234 429.767 386.023 429.471 385.758 429.229C387.616 428.145 388.682 426.442 388.236 424.893C387.715 423.035 385.139 422.075 382.388 422.626C382.516 422.28 382.569 421.91 382.543 421.542C382.339 419.411 379.508 417.943 376.213 418.259C373.636 418.501 371.567 419.77 370.867 421.356L370.83 421.319C368.452 419.306 365.435 418.965 364.085 420.563C362.734 422.161 363.521 424.819 365.67 426.813C365.554 427.453 365.579 428.111 365.745 428.74C365.234 428.314 364.672 427.954 364.072 427.668C361.26 426.336 358.256 426.782 357.364 428.665C356.472 430.548 358.021 433.156 360.833 434.494C361.491 434.808 362.189 435.031 362.908 435.157C362.908 435.219 362.864 435.281 362.846 435.343C360.412 435.627 358.51 436.934 358.324 438.725C358.309 438.914 358.309 439.105 358.324 439.294C356.701 439.064 355.048 439.392 353.635 440.223C350.99 441.642 349.473 443.94 350.247 445.414C351.021 446.888 353.802 446.901 356.441 445.489C356.854 445.264 357.249 445.01 357.624 444.727C357.596 445.873 358.019 446.985 358.801 447.824C358.324 447.771 357.844 447.752 357.364 447.768C355.103 447.867 353.195 448.703 352.266 449.831C351.345 449.872 350.437 450.065 349.578 450.401C346.71 451.528 344.945 453.875 345.639 455.653C346.047 456.688 347.212 457.282 348.667 457.387C347.843 458.023 347.286 458.945 347.107 459.97C345.155 460.918 343.96 462.448 344.288 463.755C344.392 464.122 344.593 464.454 344.87 464.715C343.142 464.715 341.742 465.335 341.247 466.53C340.423 468.481 342.368 471.163 345.583 472.526C346.59 472.96 347.665 473.216 348.76 473.282C348.81 473.375 348.859 473.474 348.903 473.573C348.262 473.577 347.623 473.643 346.995 473.771C343.632 474.465 341.241 476.645 341.656 478.64C342.071 480.634 345.131 481.681 348.469 480.981C349.912 480.708 351.264 480.08 352.403 479.154C352.404 479.536 352.471 479.915 352.601 480.275C350.947 480.707 349.492 481.695 348.482 483.075C346.456 485.682 346.171 488.841 347.862 490.142C349.553 491.443 352.526 490.384 354.552 487.782C356.014 485.924 356.553 483.744 356.119 482.207C356.511 482.165 356.897 482.082 357.271 481.96C356.559 484.499 357.085 486.865 358.665 487.534C360.523 488.346 363.063 486.593 364.376 483.62C365.19 481.976 365.345 480.084 364.809 478.33L366.55 477.091C366.472 477.663 366.538 478.246 366.741 478.787C366.945 479.327 367.279 479.809 367.714 480.188C369.455 481.538 372.478 480.554 374.478 477.983C376.399 475.505 376.653 472.501 375.129 471.07L376.857 469.832C377.061 471.275 377.724 472.402 378.783 472.774C380.363 473.325 382.277 472.055 383.503 469.856C384.352 471.417 385.622 472.377 386.916 472.21C388.496 472.006 389.611 470.172 389.803 467.806C391.537 467.806 393.073 465.533 393.253 462.591C393.342 461.382 393.149 460.169 392.689 459.048C393.244 458.379 393.629 457.587 393.81 456.737C393.847 456.379 393.826 456.017 393.748 455.666L393.971 455.486C393.638 457.04 393.839 458.662 394.541 460.088C395.78 462.826 398.078 464.461 399.695 463.73C401.311 462.999 401.634 460.193 400.407 457.456C399.249 454.879 397.137 453.306 395.539 453.739C395.613 453.628 395.693 453.535 395.768 453.417C396.263 452.594 396.611 451.69 396.796 450.747C397.936 451.472 399.788 451.695 401.751 451.212C404.662 450.5 406.707 448.517 406.261 446.796C405.815 445.074 403.194 444.262 400.296 444.974Z" fill="#99B826"/>
<path d="M364.642 483.564C363.323 486.543 360.765 488.296 358.925 487.478C357.085 486.661 356.664 483.595 357.977 480.615C359.29 477.636 361.855 475.889 363.694 476.701C365.534 477.512 365.955 480.591 364.642 483.564Z" fill="#AFD42F"/>
<path d="M384.426 468.369C383.355 471.467 380.945 473.393 379.05 472.705C377.154 472.018 376.479 468.989 377.551 465.941C378.622 462.894 381.032 460.918 382.933 461.606C384.835 462.293 385.498 465.291 384.426 468.369Z" fill="#AFD42F"/>
<path d="M390.026 465.855C390.447 469.082 389.171 471.912 387.176 472.173C385.182 472.433 383.225 470.023 382.803 466.796C382.382 463.569 383.664 460.738 385.659 460.484C387.653 460.23 389.611 462.627 390.026 465.855Z" fill="#AFD42F"/>
<path d="M393.513 462.553C393.333 465.545 391.748 467.887 389.97 467.781C388.192 467.676 386.916 465.155 387.096 462.157C387.276 459.159 388.867 456.818 390.639 456.929C392.411 457.041 393.699 459.555 393.513 462.553Z" fill="#AFD42F"/>
<path d="M400.667 457.418C401.906 460.156 401.578 462.993 399.961 463.693C398.345 464.393 396.034 462.789 394.801 460.051C393.569 457.313 393.891 454.476 395.514 453.776C397.137 453.076 399.441 454.68 400.667 457.418Z" fill="#AFD42F"/>
<path d="M400.481 444.925C403.399 444.206 406.106 445.024 406.527 446.746C406.948 448.468 404.935 450.462 402.018 451.169C399.1 451.875 396.4 451.069 395.972 449.31C395.545 447.551 397.57 445.65 400.481 444.925Z" fill="#AFD42F"/>
<path d="M391.735 435.014C394.95 434.779 397.682 436.253 397.837 438.365C397.991 440.477 395.508 442.342 392.293 442.577C389.078 442.812 386.346 441.338 386.192 439.226C386.037 437.114 388.527 435.268 391.735 435.014Z" fill="#AFD42F"/>
<path d="M386.588 447.118C386.693 443.897 388.446 441.338 390.571 441.407C392.695 441.475 394.287 444.144 394.17 447.365C394.052 450.586 392.28 453.144 390.187 453.076C388.093 453.008 386.483 450.339 386.588 447.118Z" fill="#AFD42F"/>
<path d="M377.922 443.141C378.028 439.87 379.966 437.281 382.258 437.356C384.55 437.43 386.297 440.143 386.192 443.413C386.086 446.684 384.147 449.273 381.856 449.199C379.564 449.124 377.817 446.411 377.922 443.141Z" fill="#AFD42F"/>
<path d="M393.191 434.395C393.296 431.174 395.08 428.616 397.174 428.684C399.267 428.752 400.89 431.422 400.773 434.643C400.655 437.864 398.914 440.422 396.79 440.354C394.665 440.286 393.086 437.622 393.191 434.395Z" fill="#AFD42F"/>
<path d="M384.457 433.305C386.192 430.592 389.028 429.303 390.794 430.431C392.559 431.558 392.59 434.674 390.856 437.393C389.121 440.112 386.278 441.394 384.513 440.267C382.748 439.14 382.723 436.024 384.457 433.305Z" fill="#AFD42F"/>
<path d="M379.743 428.764C382.723 427.525 385.789 428.083 386.594 430.003C387.399 431.923 385.64 434.512 382.667 435.751C379.694 436.99 376.628 436.433 375.854 434.512C375.079 432.592 376.758 430.003 379.743 428.764Z" fill="#AFD42F"/>
<path d="M379.477 453.757C381.682 451.441 384.594 450.623 385.975 451.899C387.356 453.175 386.675 456.161 384.47 458.484C382.265 460.806 379.347 461.624 377.966 460.311C376.584 458.998 377.266 456.074 379.477 453.757Z" fill="#AFD42F"/>
<path d="M379.731 449.88C380.908 446.901 383.299 445.049 385.07 445.748C386.842 446.448 387.319 449.465 386.142 452.413C384.965 455.362 382.574 457.245 380.803 456.545C379.031 455.845 378.554 452.841 379.731 449.88Z" fill="#AFD42F"/>
<path d="M411.507 433.329C414.152 433.521 416.184 435.113 416.06 436.885C415.936 438.656 413.681 439.932 411.042 439.74C408.404 439.548 406.36 437.956 406.49 436.185C406.62 434.413 408.868 433.156 411.507 433.329Z" fill="#AFD42F"/>
<path d="M374.745 477.934C372.744 480.498 369.715 481.489 367.981 480.139C366.246 478.788 366.457 475.611 368.452 473.04C370.446 470.47 373.481 469.485 375.216 470.835C376.95 472.185 376.758 475.363 374.745 477.934Z" fill="#AFD42F"/>
<path d="M366.922 472.978C364.58 475.233 361.44 475.784 359.916 474.217C358.392 472.65 359.049 469.515 361.396 467.255C363.744 464.994 366.878 464.455 368.402 466.016C369.926 467.577 369.269 470.717 366.922 472.978Z" fill="#AFD42F"/>
<path d="M360.498 480.052C358.157 482.307 355.016 482.858 353.493 481.291C351.969 479.724 352.626 476.589 354.973 474.335C357.321 472.08 360.455 471.529 361.979 473.096C363.502 474.663 362.846 477.791 360.498 480.052Z" fill="#AFD42F"/>
<path d="M356.528 475.158C353.598 476.199 350.656 475.449 349.956 473.486C349.256 471.522 351.071 469.082 354.001 468.041C356.93 467 359.873 467.744 360.573 469.713C361.273 471.683 359.464 474.117 356.528 475.158Z" fill="#AFD42F"/>
<path d="M357.556 468.382C354.626 469.423 351.684 468.673 350.984 466.709C350.284 464.746 352.093 462.305 355.029 461.265C357.965 460.224 360.901 460.974 361.601 462.937C362.301 464.901 360.492 467.341 357.556 468.382Z" fill="#AFD42F"/>
<path d="M368.637 462.144C366.68 464.566 363.781 465.471 362.158 464.158C360.535 462.844 360.802 459.822 362.778 457.4C364.754 454.978 367.628 454.08 369.251 455.387C370.873 456.694 370.564 459.723 368.637 462.144Z" fill="#AFD42F"/>
<path d="M378.071 451.738C378.133 454.835 376.492 457.406 374.41 457.449C372.329 457.492 370.582 454.971 370.52 451.874C370.458 448.777 372.094 446.213 374.181 446.169C376.269 446.126 377.997 448.641 378.071 451.738Z" fill="#AFD42F"/>
<path d="M376.139 466.393C376.2 469.491 374.559 472.061 372.478 472.098C370.397 472.135 368.65 469.621 368.588 466.524C368.526 463.427 370.161 460.856 372.249 460.819C374.336 460.782 376.058 463.278 376.139 466.393Z" fill="#AFD42F"/>
<path d="M369.988 437.82C372.323 435.534 375.5 435.002 377.086 436.625C378.672 438.247 378.052 441.406 375.717 443.686C373.382 445.965 370.198 446.504 368.619 444.881C367.039 443.259 367.653 440.1 369.988 437.82Z" fill="#AFD42F"/>
<path d="M365.918 447.124C368.142 444.95 371.127 444.398 372.589 445.885C374.051 447.372 373.419 450.351 371.196 452.525C368.972 454.699 365.98 455.251 364.524 453.764C363.069 452.277 363.688 449.298 365.918 447.124Z" fill="#AFD42F"/>
<path d="M357.556 454.006C359.78 451.831 362.765 451.28 364.227 452.767C365.689 454.253 365.057 457.233 362.834 459.407C360.61 461.581 357.618 462.132 356.162 460.646C354.707 459.159 355.326 456.18 357.556 454.006Z" fill="#AFD42F"/>
<path d="M371.957 461.971C371.096 458.986 372.019 456.093 374.026 455.517C376.033 454.941 378.362 456.892 379.217 459.853C380.072 462.814 379.155 465.731 377.148 466.313C375.141 466.896 372.818 464.963 371.957 461.971Z" fill="#AFD42F"/>
<path d="M382.159 459.116C381.298 456.124 382.221 453.231 384.228 452.655C386.235 452.079 388.564 454.03 389.419 456.991C390.274 459.952 389.357 462.869 387.35 463.451C385.343 464.034 383.02 462.101 382.159 459.116Z" fill="#AFD42F"/>
<path d="M382.029 422.681C385.033 421.857 387.914 422.818 388.465 424.831C389.016 426.844 387.034 429.167 384.036 429.966C381.038 430.765 378.152 429.829 377.6 427.822C377.049 425.816 379.031 423.511 382.029 422.681Z" fill="#AFD42F"/>
<path d="M373.859 425.81C376.337 427.922 377.154 431.087 375.637 432.883C374.119 434.68 370.867 434.407 368.371 432.295C365.875 430.183 365.076 427.017 366.593 425.227C368.111 423.437 371.363 423.697 373.859 425.81Z" fill="#AFD42F"/>
<path d="M376.442 418.191C379.737 417.875 382.574 419.349 382.779 421.474C382.983 423.599 380.474 425.587 377.204 425.903C373.933 426.219 371.072 424.744 370.873 422.614C370.675 420.483 373.147 418.507 376.442 418.191Z" fill="#AFD42F"/>
<path d="M364.909 442.949C367.653 444.423 369.071 447.111 368.08 448.944C367.089 450.778 364.072 451.075 361.328 449.601C358.584 448.127 357.172 445.445 358.157 443.605C359.142 441.765 362.171 441.474 364.909 442.949Z" fill="#AFD42F"/>
<path d="M364.308 427.581C367.114 428.913 368.644 431.521 367.776 433.41C366.909 435.299 363.874 435.739 361.068 434.401C358.262 433.063 356.732 430.461 357.593 428.572C358.454 426.683 361.496 426.237 364.308 427.581Z" fill="#AFD42F"/>
<path d="M371.059 421.22C373.438 423.233 374.268 426.175 372.918 427.742C371.567 429.309 368.582 428.981 366.178 426.987C363.775 424.992 362.964 422.031 364.32 420.464C365.677 418.897 368.706 419.213 371.059 421.22Z" fill="#AFD42F"/>
<path d="M365.057 435.231C368.39 435.609 370.886 437.746 370.632 440C370.378 442.255 367.467 443.773 364.134 443.395C360.802 443.017 358.306 440.917 358.56 438.631C358.813 436.346 361.725 434.853 365.057 435.231Z" fill="#AFD42F"/>
<path d="M396.028 453.38C394.337 456.161 391.444 457.493 389.567 456.353C387.691 455.213 387.53 452.017 389.214 449.248C390.899 446.48 393.798 445.135 395.681 446.275C397.564 447.415 397.719 450.599 396.028 453.38Z" fill="#AFD42F"/>
<path d="M354.812 487.72C352.793 490.321 349.795 491.374 348.122 490.08C346.45 488.785 346.741 485.614 348.742 483.012C350.743 480.411 353.759 479.352 355.431 480.652C357.104 481.953 356.838 485.118 354.812 487.72Z" fill="#AFD42F"/>
<path d="M348.754 480.919C345.391 481.619 342.331 480.566 341.941 478.578C341.55 476.589 343.917 474.403 347.28 473.703C350.643 473.003 353.703 474.056 354.094 476.05C354.484 478.045 352.111 480.231 348.754 480.919Z" fill="#AFD42F"/>
<path d="M345.849 472.464C342.622 471.095 340.677 468.413 341.513 466.468C342.349 464.523 345.62 464.052 348.841 465.415C352.062 466.778 354.013 469.466 353.177 471.411C352.341 473.356 349.07 473.827 345.849 472.464Z" fill="#AFD42F"/>
<path d="M353.84 461.779C350.972 462.906 348.116 462.479 347.472 460.819C346.828 459.159 348.624 456.91 351.492 455.789C354.36 454.668 357.215 455.095 357.866 456.749C358.516 458.403 356.707 460.658 353.84 461.779Z" fill="#AFD42F"/>
<path d="M352.353 456.761C349.485 457.889 346.592 457.381 345.899 455.585C345.205 453.788 346.964 451.465 349.838 450.338C352.712 449.211 355.599 449.719 356.292 451.515C356.986 453.311 355.227 455.634 352.353 456.761Z" fill="#AFD42F"/>
<path d="M350.743 465.489C347.745 466.22 344.976 465.415 344.548 463.693C344.121 461.971 346.208 459.976 349.206 459.239C352.204 458.502 354.973 459.307 355.401 461.035C355.828 462.764 353.728 464.746 350.743 465.489Z" fill="#AFD42F"/>
<path d="M356.695 445.39C354.05 446.808 351.275 446.777 350.501 445.321C349.727 443.866 351.238 441.543 353.883 440.131C356.528 438.718 359.309 438.749 360.077 440.199C360.845 441.648 359.346 443.977 356.695 445.39Z" fill="#AFD42F"/>
<path d="M357.909 454.507C354.676 454.649 351.994 453.237 351.913 451.354C351.833 449.471 354.391 447.842 357.618 447.706C360.845 447.57 363.54 448.982 363.62 450.859C363.701 452.736 361.142 454.371 357.909 454.507Z" fill="#AFD42F"/>
<path d="M399.676 452.506C399.528 449.056 400.097 447.049 396.108 446.418C392.119 445.786 391.085 448.945 391.085 448.945L389.654 442.218C391.045 443.659 392.814 444.678 394.758 445.16C398.047 445.996 406.118 445.705 413.025 441.407C414.988 440.013 410.107 438.025 407.933 438.086C405.574 438.33 403.281 439.008 401.169 440.087C400.29 440.669 405.852 437.61 404.148 436.117C402.445 434.624 412.331 438.594 402.773 434.066C393.216 429.539 402.501 431.05 404.718 433.298C406.936 435.547 409.383 435.479 409.296 432.283C409.209 429.086 410.2 427.947 410.336 431.087C410.473 434.227 409.383 435.572 412.003 437.108C414.623 438.644 414.282 437.956 413.7 436.395C413.118 434.835 412.164 429.105 410.169 426.485C408.175 423.865 411.34 424.546 413.824 432.264C416.308 439.982 414.988 438.712 419.547 439.808C424.106 440.905 425.97 440.923 427.717 439.071C428.906 438.086 433.781 439.982 432.437 440.583C431.093 441.184 429.959 441.493 427.011 442.168C424.769 442.528 423.109 442.051 418.339 441.939C418.339 441.939 415.824 441.419 408.769 445.036C405.517 446.659 404.322 446.51 403.387 447.632C402.451 448.753 401.987 446.603 401.262 448.127C400.537 449.651 399.763 448.92 401.473 451.689C403.182 454.458 399.676 452.506 399.676 452.506Z" fill="#3C4073"/>
<path d="M352.681 419.962C349.813 419.175 347.881 417.107 348.345 415.335C348.81 413.563 351.548 412.758 354.416 413.545C357.284 414.332 359.216 416.4 358.752 418.172C358.287 419.943 355.549 420.767 352.681 419.962Z" fill="#3C4073"/>
<path d="M369.102 435.757C366.178 435.206 364.085 433.28 364.425 431.49C364.766 429.7 367.411 428.671 370.328 429.216C373.246 429.762 375.346 431.694 375.005 433.484C374.664 435.274 372.019 436.303 369.102 435.757Z" fill="#3C4073"/>
<path d="M372.131 440.471C369.275 441.289 366.556 440.521 366.042 438.755C365.528 436.99 367.442 434.896 370.297 434.072C373.153 433.249 375.872 434.023 376.386 435.788C376.9 437.554 374.986 439.653 372.131 440.471Z" fill="#3C4073"/>
<path d="M375.593 443.166C372.862 443.407 370.533 442.299 370.39 440.688C370.248 439.078 372.342 437.591 375.073 437.325C377.805 437.058 380.134 438.198 380.276 439.802C380.419 441.407 378.325 442.924 375.593 443.166Z" fill="#3C4073"/>
<path d="M381.205 448.926C378.895 450.407 376.318 450.506 375.439 449.143C374.559 447.78 375.724 445.47 378.028 443.989C380.332 442.509 382.915 442.41 383.788 443.773C384.662 445.135 383.51 447.446 381.205 448.926Z" fill="#3C4073"/>
<path d="M392.454 447.055C393.501 449.589 393.129 452.147 391.63 452.766C390.131 453.386 388.068 451.831 387.028 449.291C385.987 446.752 386.346 444.206 387.845 443.587C389.344 442.967 391.407 444.522 392.454 447.055Z" fill="#3C4073"/>
<path d="M400.197 437.808C400.816 440.675 399.868 443.382 398.004 443.773C396.139 444.163 394.095 442.212 393.445 439.344C392.795 436.476 393.773 433.769 395.638 433.379C397.502 432.989 399.546 434.94 400.197 437.808Z" fill="#3C4073"/>
<path d="M388.583 434.81C391.506 434.469 394.058 435.726 394.281 437.628C394.504 439.53 392.318 441.344 389.394 441.691C386.47 442.038 383.918 440.768 383.695 438.873C383.472 436.978 385.659 435.15 388.583 434.81Z" fill="#3C4073"/>
<path d="M391.004 426.441C393.971 426.094 396.579 427.488 396.821 429.538C397.062 431.588 394.851 433.564 391.865 433.911C388.88 434.258 386.291 432.871 386.055 430.814C385.82 428.758 388.025 426.788 391.004 426.441Z" fill="#3C4073"/>
<path d="M400.965 439.034C403.888 438.694 406.44 439.951 406.663 441.853C406.886 443.754 404.7 445.569 401.776 445.916C398.852 446.263 396.3 444.999 396.077 443.098C395.854 441.196 398.041 439.381 400.965 439.034Z" fill="#3C4073"/>
<path d="M400.76 431C403.455 432.195 405.003 434.586 404.223 436.333C403.442 438.08 400.636 438.526 397.948 437.33C395.26 436.135 393.711 433.75 394.486 432.003C395.26 430.257 398.072 429.805 400.76 431Z" fill="#3C4073"/>
<path d="M404.223 426.126C405.747 428.647 405.66 431.49 404.025 432.481C402.389 433.472 399.825 432.239 398.301 429.718C396.777 427.197 396.864 424.36 398.499 423.369C400.135 422.378 402.693 423.611 404.223 426.126Z" fill="#3C4073"/>
<path d="M381.614 429.291C384.011 430.969 385.151 433.484 384.154 434.909C383.156 436.333 380.4 436.148 378.003 434.444C375.606 432.741 374.472 430.251 375.47 428.826C376.467 427.401 379.236 427.612 381.614 429.291Z" fill="#3C4073"/>
<path d="M385.17 428.987C388.025 429.65 390.02 431.552 389.629 433.249C389.239 434.946 386.613 435.782 383.757 435.107C380.902 434.432 378.907 432.543 379.297 430.852C379.688 429.161 382.333 428.331 385.17 428.987Z" fill="#3C4073"/>
<path d="M404.433 455.455C404.619 457.864 403.461 459.921 401.844 460.044C400.228 460.168 398.747 458.316 398.58 455.907C398.413 453.497 399.552 451.441 401.169 451.311C402.786 451.181 404.248 453.02 404.433 455.455Z" fill="#3C4073"/>
<path d="M359.148 428.312C356.553 426.862 355.246 424.261 356.23 422.508C357.215 420.755 360.114 420.513 362.703 421.969C365.293 423.425 366.6 426.02 365.621 427.773C364.642 429.526 361.737 429.768 359.148 428.312Z" fill="#3C4073"/>
<path d="M362.555 420.575C360.195 418.773 359.272 416.01 360.492 414.418C361.712 412.826 364.617 412.994 366.977 414.802C369.337 416.611 370.26 419.374 369.04 420.996C367.82 422.619 364.915 422.384 362.555 420.575Z" fill="#3C4073"/>
<path d="M355.289 415.744C352.929 413.936 352.006 411.173 353.233 409.581C354.459 407.989 357.358 408.163 359.718 409.971C362.078 411.78 362.994 414.536 361.774 416.128C360.554 417.72 357.649 417.553 355.289 415.744Z" fill="#3C4073"/>
<path d="M359.167 411.476C357.822 408.999 358.101 406.211 359.786 405.313C361.471 404.415 363.911 405.716 365.255 408.224C366.6 410.733 366.321 413.489 364.636 414.418C362.951 415.348 360.505 413.997 359.167 411.476Z" fill="#3C4073"/>
<path d="M365.423 411.476C364.085 408.999 364.357 406.211 366.042 405.313C367.727 404.415 370.174 405.716 371.511 408.218C372.849 410.721 372.577 413.483 370.892 414.412C369.207 415.341 366.767 413.997 365.423 411.476Z" fill="#3C4073"/>
<path d="M372.564 420.65C370.087 419.213 368.904 416.717 369.864 415.075C370.824 413.434 373.58 413.26 376.058 414.691C378.536 416.122 379.725 418.625 378.765 420.266C377.805 421.907 375.017 422.081 372.564 420.65Z" fill="#3C4073"/>
<path d="M383.225 427.748C380.425 428.231 377.898 427.129 377.576 425.221C377.253 423.313 379.26 421.43 382.06 420.953C384.86 420.476 387.393 421.603 387.715 423.48C388.037 425.357 386.049 427.271 383.225 427.748Z" fill="#3C4073"/>
<path d="M369.752 427.984C366.953 428.467 364.419 427.364 364.097 425.457C363.775 423.549 365.782 421.666 368.588 421.189C371.394 420.712 373.915 421.839 374.237 423.716C374.559 425.593 372.552 427.507 369.752 427.984Z" fill="#3C4073"/>
<path d="M394.721 418.55C397.099 420.353 398.016 423.146 396.771 424.794C395.526 426.442 392.584 426.324 390.205 424.521C387.827 422.719 386.91 419.925 388.155 418.278C389.4 416.63 392.336 416.754 394.721 418.55Z" fill="#3C4073"/>
<path d="M385.758 416.147C388.025 417.856 388.929 420.482 387.783 422C386.638 423.518 383.863 423.363 381.589 421.647C379.316 419.931 378.418 417.311 379.57 415.793C380.722 414.276 383.491 414.431 385.758 416.147Z" fill="#3C4073"/>
<path d="M378.406 409.532C380.673 411.248 381.577 413.868 380.425 415.385C379.273 416.903 376.51 416.748 374.231 415.032C371.951 413.316 371.059 410.696 372.205 409.179C373.351 407.661 376.138 407.816 378.406 409.532Z" fill="#3C4073"/>
<path d="M373.171 423.623C375.754 422.44 378.492 422.88 379.291 424.608C380.09 426.336 378.635 428.708 376.052 429.891C373.469 431.075 370.731 430.635 369.938 428.907C369.145 427.178 370.564 424.812 373.171 423.623Z" fill="#3C4073"/>
<path d="M377.148 432.443C379.731 431.26 382.469 431.7 383.262 433.435C384.055 435.169 382.642 437.529 380.028 438.712C377.415 439.895 374.708 439.461 373.915 437.727C373.122 435.993 374.565 433.633 377.148 432.443Z" fill="#3C4073"/>
<path d="M410.027 427.358C411.179 429.96 410.702 432.692 408.961 433.466C407.221 434.24 404.873 432.76 403.721 430.164C402.569 427.569 403.04 424.837 404.78 424.063C406.521 423.289 408.868 424.763 410.027 427.358Z" fill="#3C4073"/>
<path d="M406.087 420.408C404.52 422.954 401.751 424.125 399.943 422.979C398.134 421.833 397.911 418.878 399.478 416.339C401.045 413.799 403.814 412.622 405.623 413.768C407.431 414.914 407.654 417.863 406.087 420.408Z" fill="#3C4073"/>
<path d="M413.303 421.703C414.04 424.633 413.099 427.395 411.204 427.897C409.308 428.399 407.177 426.38 406.446 423.45C405.716 420.52 406.657 417.757 408.546 417.287C410.435 416.816 412.585 418.773 413.303 421.703Z" fill="#3C4073"/>
<path d="M389.388 414.666C388.434 417.342 386.198 419.002 384.432 418.346C382.667 417.689 381.955 415.013 382.921 412.337C383.887 409.662 386.111 408.002 387.876 408.658C389.642 409.315 390.348 411.991 389.388 414.666Z" fill="#3C4073"/>
<path d="M402.897 411.421C402.08 414.14 399.93 415.899 398.109 415.348C396.288 414.796 395.477 412.145 396.294 409.426C397.112 406.707 399.261 404.942 401.082 405.493C402.903 406.044 403.721 408.695 402.897 411.421Z" fill="#3C4073"/>
<path d="M409.847 417.255C408.36 419.677 405.833 420.823 404.217 419.826C402.6 418.829 402.488 416.054 403.975 413.632C405.462 411.21 407.989 410.058 409.612 411.061C411.235 412.065 411.34 414.84 409.847 417.255Z" fill="#3C4073"/>
<path d="M396.375 413.743C396.493 416.84 394.907 419.349 392.832 419.43C390.757 419.51 388.991 417.082 388.88 414.022C388.768 410.962 390.354 408.416 392.423 408.342C394.492 408.268 396.263 410.683 396.375 413.743Z" fill="#3C4073"/>
<path d="M384.191 444.188C381.447 443.042 379.855 440.608 380.629 438.756C381.404 436.903 384.253 436.327 386.997 437.473C389.741 438.619 391.333 441.047 390.558 442.906C389.784 444.764 386.96 445.334 384.191 444.188Z" fill="#3C4073"/>
<path d="M347.59 411.656C344.963 410.182 343.601 407.623 344.548 405.932C345.496 404.241 348.389 404.074 351.015 405.548C353.641 407.023 355.004 409.581 354.056 411.272C353.109 412.963 350.216 413.13 347.59 411.656Z" fill="#3C4073"/>
<path d="M352.904 405.282C351.814 402.34 352.347 399.435 354.087 398.791C355.828 398.146 358.126 400.029 359.21 402.941C360.294 405.852 359.774 408.788 358.027 409.432C356.28 410.076 353.994 408.193 352.904 405.282Z" fill="#3C4073"/>
<path d="M360.139 401.479C360.938 398.382 363.094 396.257 364.964 396.734C366.835 397.211 367.702 400.116 366.909 403.213C366.116 406.31 363.961 408.429 362.09 407.952C360.22 407.475 359.346 404.576 360.139 401.479Z" fill="#3C4073"/>
<path d="M370.88 407.234C369.467 404.793 369.467 402.161 370.88 401.349C372.292 400.538 374.596 401.857 375.971 404.297C377.346 406.738 377.383 409.37 375.971 410.182C374.559 410.993 372.286 409.674 370.88 407.234Z" fill="#3C4073"/>
<path d="M375.209 405.214C373.797 402.773 373.878 400.091 375.389 399.218C376.9 398.345 379.254 399.621 380.666 402.061C382.079 404.502 381.992 407.184 380.487 408.051C378.982 408.918 376.615 407.648 375.209 405.214Z" fill="#3C4073"/>
<path d="M367.107 404.942C366.036 402.334 366.383 399.726 367.882 399.107C369.381 398.487 371.468 400.104 372.54 402.706C373.611 405.307 373.264 407.921 371.759 408.541C370.254 409.16 368.179 407.543 367.107 404.942Z" fill="#3C4073"/>
<path d="M386.049 407.58C384.408 405.388 384.061 402.879 385.262 401.975C386.464 401.07 388.775 402.13 390.416 404.328C392.057 406.527 392.404 409.036 391.196 409.903C389.989 410.77 387.703 409.779 386.049 407.58Z" fill="#3C4073"/>
<path d="M377.997 409.922C377.433 407.023 378.344 404.403 380.028 404.075C381.713 403.746 383.534 405.834 384.104 408.733C384.674 411.631 383.757 414.252 382.072 414.58C380.388 414.908 378.567 412.821 377.997 409.922Z" fill="#3C4073"/>
<path d="M310.877 438C307.848 438.824 297.07 437.795 292.84 448.53C288.9 458.54 297.33 471.343 305.284 474.75C313.107 478.101 322.844 474.935 325.353 472.743C327.861 470.55 327.83 470.761 329.255 470.488C330.68 470.216 337.592 465.229 340.144 460.41C342.511 455.938 344.257 443.283 337.537 434.426C331.993 427.104 322.621 428.232 317.443 431.502C311.373 435.324 312.463 437.566 310.877 438Z" fill="#DE5D49"/>
<path d="M412.684 412.418C412.684 412.418 362.753 449.347 341.018 462.516C341.018 462.516 328.072 460.571 323.055 460.304C318.037 460.038 305.333 460.98 302.651 461.63C299.969 462.28 301.914 464.727 304.509 464.876C307.105 465.024 314.11 466.914 316.978 469.571C316.978 469.571 312.562 471.844 309.706 471.695C306.851 471.547 302.521 469.837 301.555 469.026C300.997 469.862 301.214 475.932 302.98 479.197C304.15 481.365 305.662 485.62 307.836 488.488C310.809 492.378 314.16 494.36 317.009 494.595C321.401 494.459 322.373 493.976 328.679 492.272C340.231 489.175 349.219 482.04 353.456 479.828C357.692 477.617 426.144 443.283 426.144 443.283C426.144 443.283 455.678 425.32 455.164 418.903C454.29 408.218 438.123 400.327 412.684 412.418Z" fill="#F7A491"/>
<path d="M307.136 440.291C309.843 440.508 311.391 437.727 311.391 437.727C307.613 439.282 305.358 440.143 307.136 440.291Z" fill="#BF4020"/>
</svg>
